<?xml version="1.0" standalone="no"?>
<!DOCTYPE svg PUBLIC "-//W3C//DTD SVG 20010904//EN"
 "http://www.w3.org/TR/2001/REC-SVG-20010904/DTD/svg10.dtd">
<svg version="1.0" xmlns="http://www.w3.org/2000/svg"
 width="50pt" height="50pt" viewBox="0 0 512.000000 512.000000"
 preserveAspectRatio="xMidYMid meet">
<metadata>
Created by potrace 1.16, written by Peter Selinger 2001-2019
</metadata>
<g transform="translate(0.000000,512.000000) scale(0.100000,-0.100000)"
fill="#A0A" stroke="none">
<path d="M0 2560 l0 -2560 2560 0 2560 0 0 2560 0 2560 -2560 0 -2560 0 0
-2560z m1938 360 c2 -828 0 -1254 -8 -1337 -31 -347 -142 -507 -397 -574 -61
-16 -121 -22 -275 -26 l-198 -6 0 155 0 155 113 11 c244 24 302 80 327 317 6
52 10 605 10 1308 l0 1217 213 -2 212 -3 3 -1215z m912 555 l0 -665 205 -1
c113 -1 243 -1 290 -1 47 0 132 0 190 1 l104 1 -2 663 -2 662 218 3 217 2 0
-1545 0 -1545 -217 2 -218 3 -3 718 -2 717 -390 0 -390 0 0 -720 0 -720 -217
2 -218 3 -3 1530 c-1 842 0 1536 3 1543 3 9 57 12 220 12 l215 0 0 -665z"/>
</g>
</svg>
